<svg width="650" height="140" viewBox="0 0 650 140" fill="none" xmlns="http://www.w3.org/2000/svg">
<rect width="650" height="140" fill="none"/>
<mask id="path-1-outside-1_0_1" maskUnits="userSpaceOnUse" x="0" y="37" width="70" height="92" fill="black">
<rect fill="white" y="37" width="70" height="92"/>
<path fill-rule="evenodd" clip-rule="evenodd" d="M39.8309 91.8873L41.2672 54.1837C41.2672 50.2338 40.4294 46.8824 38.7537 44.1294C37.0779 41.3765 34.2053 40 30.1357 40C26.6646 40 22.595 41.4363 17.9269 44.309C13.3786 47.1816 9.06959 50.2338 5 53.4656L7.33403 56.6973C9.48852 55.3806 11.9422 54.1239 14.6952 52.9269C17.4482 51.6103 19.7822 50.952 21.6973 50.952C24.0912 50.952 25.707 52.3285 26.5449 55.0814C27.5024 57.8344 27.9812 61.5449 27.9812 66.2129L26.904 105.891C26.904 111.756 27.5623 116.125 28.8789 118.998C30.1955 121.871 31.9311 123.726 34.0856 124.564C36.3598 125.521 38.7536 126 41.2672 126C44.6186 126 47.7905 125.102 50.7829 123.307C53.8949 121.511 56.7676 119.297 59.4008 116.664C62.1538 113.911 64.5477 111.218 66.5825 108.585V106.61L64.2484 104.814C61.8546 106.969 59.341 108.884 56.7077 110.559C54.1942 112.116 51.2018 112.894 47.7307 112.894C44.6187 112.894 42.524 111.038 41.4468 107.328C40.3695 103.617 39.8309 98.4704 39.8309 91.8873Z"/>
</mask>
<path fill-rule="evenodd" clip-rule="evenodd" d="M39.8309 91.8873L41.2672 54.1837C41.2672 50.2338 40.4294 46.8824 38.7537 44.1294C37.0779 41.3765 34.2053 40 30.1357 40C26.6646 40 22.595 41.4363 17.9269 44.309C13.3786 47.1816 9.06959 50.2338 5 53.4656L7.33403 56.6973C9.48852 55.3806 11.9422 54.1239 14.6952 52.9269C17.4482 51.6103 19.7822 50.952 21.6973 50.952C24.0912 50.952 25.707 52.3285 26.5449 55.0814C27.5024 57.8344 27.9812 61.5449 27.9812 66.2129L26.904 105.891C26.904 111.756 27.5623 116.125 28.8789 118.998C30.1955 121.871 31.9311 123.726 34.0856 124.564C36.3598 125.521 38.7536 126 41.2672 126C44.6186 126 47.7905 125.102 50.7829 123.307C53.8949 121.511 56.7676 119.297 59.4008 116.664C62.1538 113.911 64.5477 111.218 66.5825 108.585V106.61L64.2484 104.814C61.8546 106.969 59.341 108.884 56.7077 110.559C54.1942 112.116 51.2018 112.894 47.7307 112.894C44.6187 112.894 42.524 111.038 41.4468 107.328C40.3695 103.617 39.8309 98.4704 39.8309 91.8873Z" fill="white"/>
<path fill-rule="evenodd" clip-rule="evenodd" d="M39.8309 91.8873L41.2672 54.1837C41.2672 50.2338 40.4294 46.8824 38.7537 44.1294C37.0779 41.3765 34.2053 40 30.1357 40C26.6646 40 22.595 41.4363 17.9269 44.309C13.3786 47.1816 9.06959 50.2338 5 53.4656L7.33403 56.6973C9.48852 55.3806 11.9422 54.1239 14.6952 52.9269C17.4482 51.6103 19.7822 50.952 21.6973 50.952C24.0912 50.952 25.707 52.3285 26.5449 55.0814C27.5024 57.8344 27.9812 61.5449 27.9812 66.2129L26.904 105.891C26.904 111.756 27.5623 116.125 28.8789 118.998C30.1955 121.871 31.9311 123.726 34.0856 124.564C36.3598 125.521 38.7536 126 41.2672 126C44.6186 126 47.7905 125.102 50.7829 123.307C53.8949 121.511 56.7676 119.297 59.4008 116.664C62.1538 113.911 64.5477 111.218 66.5825 108.585V106.61L64.2484 104.814C61.8546 106.969 59.341 108.884 56.7077 110.559C54.1942 112.116 51.2018 112.894 47.7307 112.894C44.6187 112.894 42.524 111.038 41.4468 107.328C40.3695 103.617 39.8309 98.4704 39.8309 91.8873Z" stroke="black" stroke-width="6" mask="url(#path-1-outside-1_0_1)"/>
<circle cx="34.5" cy="14.5" r="13" fill="#6A0000" stroke="black" stroke-width="3"/>
<text fill="black" xml:space="preserve" style="white-space: pre" font-family="Oswald" font-size="112" letter-spacing="0px"><tspan x="73" y="127.624">NFERENCE</tspan></text>
</svg>
