<?xml version="1.0" encoding="UTF-8" standalone="no"?>
<svg
   version="1.1"
   id="Layer_1"
   x="0px"
   y="0px"
   width="653.91382"
   viewBox="0 0 653.914 623.83086"
   enable-background="new 0 0 654 624"
   xml:space="preserve"
   height="623.83069"
   xmlns="http://www.w3.org/2000/svg"
   xmlns:svg="http://www.w3.org/2000/svg"><defs
   id="defs17" />

<path
   fill="#05181f"
   opacity="1"
   stroke="none"
   d="m 117.23206,287.94768 c -0.0299,-32.67221 -0.0598,-65.34439 0.26107,-98.5213 0.17567,-1.16437 6.2e-4,-1.82402 -0.17443,-2.48369 -0.0333,-14.33511 -0.0665,-28.67023 0.36447,-43.4922 3.38365,-3.45653 3.67443,-6.18279 -0.27925,-8.51599 -0.066,-2.13762 -0.13206,-4.27526 0.14493,-6.79187 0.1895,-0.58422 0.036,-0.78946 -0.11755,-0.99469 0.095,-1.12817 0.18997,-2.25634 0.84623,-3.82419 4.1354,-1.4121 7.70451,-3.20756 11.28444,-3.22935 35.0592,-0.21352 70.12023,-0.12061 105.18071,-0.1462 4.64543,-0.003 7.16334,0.61899 11.80869,0.52148 1.38913,2.38611 1.76995,3.63623 1.86618,6.0734 0.42395,10.73654 -1.31856,17.82645 -1.85094,29.13512 -0.0829,1.61067 1.06577,2.51156 0.54824,3.2757 -2.21551,3.24031 -0.71977,7.66765 -4.20949,7.66649 -23.83067,-0.008 -47.66134,0.0381 -71.49202,0.0663 -1.79841,0.002 -3.59683,3e-4 -5.74778,3e-4 v 296.73088 h 40.41403 c 0,-1.6105 -6e-5,-3.35101 0,-5.09152 0.003,-77.4928 0.006,-154.98556 0.007,-232.47836 1.4e-4,-8.67118 1.43817,-10.16213 10.08806,-10.17382 70.4931,-0.0953 140.98623,-0.1804 211.47934,-0.25808 8.48013,-0.009 11.01355,2.50485 11.01199,10.97918 -0.014,75.82598 -0.0433,151.65194 -0.068,227.47793 -9.8e-4,2.97921 -1.6e-4,5.95843 -1.6e-4,9.46813 h 40.8241 V 166.60817 c -8.0032,0 -15.64215,-0.0195 -23.28094,0.004 -18.16385,0.0556 -36.32761,0.13246 -54.49143,0.19864 -5.93625,0.0216 -9.32416,-3.08462 -9.41376,-9.15263 -0.15499,-10.49672 -0.084,-20.99716 -0.0635,-31.49595 0.009,-4.65353 2.63119,-6.98006 7.05777,-7.45055 1.65011,-0.17537 3.32901,-0.10253 4.99481,-0.10473 36.82989,-0.0486 73.65976,-0.0868 110.48965,-0.13952 9.20856,-0.0132 11.56592,2.28058 11.56598,11.40956 9.2e-4,101.82377 0.005,203.64755 -0.009,305.47134 -0.003,22.16428 -0.0593,44.32865 -0.12664,66.49283 -0.0258,8.45349 -2.62982,11.00848 -11.02173,11.00745 -36.49643,-0.005 -72.99289,-0.0167 -109.48932,-0.012 -12.02579,0.002 -13.61359,-1.50207 -13.62891,-13.406 -0.0896,-69.65997 -0.1607,-139.31992 -0.23526,-208.97989 -0.009,-8.46182 -10e-4,-16.92368 -10e-4,-25.51865 h -138.5626 c -4.68303,-2.91095 -4.63872,3.86161 -4.64095,5.65161 -0.0814,77.32605 -2.6573,153.60241 -2.69827,230.92849 -0.002,3.8725 -9.80976,-5.77518 -14.08692,-3.9058 -1.08543,0.1488 13.81504,10.84479 13.22512,11.18341 -1.48504,0.0978 -2.30897,0.12254 -3.794,0.12266 -37.42847,0.002 -74.5617,3.94809 -111.98983,3.82719 -2.69962,-0.009 -5.39591,-1.04871 -8.22375,-2.30686 -1.08874,-1.95056 -2.04748,-3.20355 -3.00622,-4.45651 -0.28718,-8.53491 -0.58303,-17.06958 -0.85459,-25.60498 -0.0577,-1.81259 -0.0268,-3.62799 0.41425,-6.02853 0.75609,-1.14438 1.32363,-1.70059 1.32744,-2.26059 0.0668,-9.83234 0.10803,-19.66562 0.003,-29.49707 -0.009,-0.8851 -1.05728,-1.75913 -1.62289,-2.63831 -0.0501,-23.6719 -0.10022,-47.34381 0.29633,-71.55176 3.08076,-3.7116 2.66578,-12.70773 -0.28738,-16.44897 -0.0578,-4.67416 -0.11559,-9.34836 0.28016,-14.60559 0.76956,-1.29932 1.35855,-2.01444 1.36132,-2.73187 0.0562,-14.52539 0.0803,-29.0513 -0.0266,-43.57611 -0.008,-1.03223 -1.07559,-2.05662 -1.65051,-3.08466 z"
   id="path2" />
<path
   fill="#05181f"
   opacity="1"
   stroke="none"
   d="m 208.93605,614.21514 c -5.99231,0.0183 -11.98293,0.20385 -18.68471,-0.18671 -0.70421,0.0799 2.99062,-0.40121 2.28206,-0.41664 -1.17308,0.007 43.46152,0.0109 42.29083,0.43255 -1.81515,0.12109 -95.52504,0.54117 -97.3405,0.54593 -35.66434,0.0937 -71.328777,0.15161 -106.993141,0.24188 -10.466629,0.0265 -12.872759,-2.30981 -12.874117,-12.92145 -0.01612,-125.99267 -0.0264,-251.98535 -0.0225,-377.97801 0.002,-64.82896 0.02736,-129.657937 0.06422,-194.486891 0.005,-8.708607 2.571922,-11.187035 11.349426,-11.183131 71.162712,0.03165 142.325422,0.06453 213.488122,0.105921 7.4437,0.0043 10.32668,2.847757 10.34209,10.219484 0.0191,9.165997 0.006,18.332257 -0.0421,27.498146 -0.0423,8.025959 -2.5079,10.45654 -10.47153,10.455197 -56.99675,-0.0097 -113.9935,-0.01965 -170.990235,-0.02947 -1.80117,-3.13e-4 -3.602348,-3e-5 -5.807129,-3e-5 V 565.73673 H 298.8577 c 0,-1.87414 -3.4e-4,-3.64184 9e-5,-5.4096 0.0185,-78.32902 0.0347,-156.65806 0.0586,-234.98707 0.003,-8.68231 1.79102,-10.42224 10.58694,-10.41323 9.33265,0.01 18.66541,-0.007 27.99784,0.042 6.32242,0.0329 8.42181,2.11569 8.42212,8.3284 0.005,93.82821 0.003,187.6564 -0.009,281.48462 -9.2e-4,7.00695 -2.81635,9.96563 -9.4635,9.95501 -37.16266,-0.0596 -74.32535,-0.14032 -112.19641,-0.70489 -5.57825,-0.2663 19.09646,0.0783 14.22144,0.0931 z"
   id="path3" />
<path
   fill="#061920"
   opacity="1"
   stroke="none"
   d="m 452.99982,614.71959 c -16.83036,0.0266 -33.16068,0.0642 -49.49103,0.075 -8.62372,0.006 -11.22949,-2.58874 -11.33676,-11.36169 -0.112,-9.16412 -0.17331,-18.32916 -0.20285,-27.49396 -0.0252,-7.80676 1.90564,-9.72253 9.73767,-9.72479 51.49084,-0.015 102.98169,-0.0173 154.47253,-0.0302 6.33216,-0.002 12.67328,-0.25257 18.99323,0.0146 3.8598,0.16321 5.14489,-0.88592 5.12182,-4.98059 -0.16388,-29.16022 -0.0341,-58.32196 -0.0478,-87.48321 -0.0633,-134.97504 -0.14294,-269.95011 -0.2218,-404.925153 -2.4e-4,-0.4832 -0.0753,-0.966347 -0.18585,-2.29715 -1.88013,0 -3.78046,-4.57e-4 -5.68079,6.1e-5 -56.82312,0.01564 -113.64621,0.03241 -170.46933,0.04604 -8.83487,0.0021 -11.48364,-2.689567 -11.49298,-11.662697 -0.01,-9.331688 -0.0406,-18.663475 -0.01,-27.995041 0.0191,-5.73826 2.74347,-8.503021 8.59195,-8.501905 72.31961,0.0138 144.63922,0.05025 216.9588,0.121408 6.97601,0.0069 9.72888,3.213913 9.72205,10.839648 -0.0711,78.984999 -0.19525,157.970019 -0.19672,236.955019 -0.002,111.97918 0.0887,223.95834 0.13361,335.93753 0.004,9.65271 -2.98004,12.54413 -12.43274,12.53552 -53.82117,-0.049 -107.64237,-0.0507 -161.9635,-0.0684 z"
   id="path4" />
<path
   fill="#810f0c"
   opacity="1"
   stroke="none"
   d="m 323.90616,132.20149 c -26.98105,1.13198 -46.54041,-22.4341 -43.22156,-48.121282 3.22754,-24.980698 23.50879,-40.023598 48.5885,-36.303898 18.04627,2.676537 30.92337,14.760777 35.07849,32.918629 3.68155,16.088356 -3.22757,34.581071 -16.58697,43.675101 -7.00559,4.76883 -14.81244,7.53066 -23.85846,7.83145 z"
   id="path5"
   style="display:inline" />
<path
   fill="#20262a"
   opacity="1"
   stroke="none"
   d="m 246.36176,120.93352 c -4.37653,0.40841 -6.97365,-0.98872 -11.61908,-0.98532 -35.06048,0.0256 -70.12151,-0.0673 -105.18071,0.1462 -3.57993,0.0218 -7.14904,1.81725 -11.08185,2.8448 1.30421,-4.60248 5.35334,-4.4048 9.1255,-4.41745 20.93523,-0.0702 41.87077,-0.0485 62.8062,-0.0595 16.7816,-0.009 34.49517,1.85863 51.27663,1.90142 2.46201,0.006 1.94301,0.0544 4.67331,0.56986 z"
   id="path6" />
<path
   fill="#20262a"
   opacity="1"
   stroke="none"
   d="m 117.13173,288.4091 c 0.67525,0.56662 1.74325,1.59101 1.75084,2.62324 0.10686,14.52481 0.0828,29.05072 0.0266,43.57611 -0.003,0.71743 -0.59176,1.43255 -1.27829,2.27441 -0.44683,-15.92035 -0.52314,-31.96631 -0.49915,-48.47376 z"
   id="path7" />
<path
   fill="#20262a"
   opacity="1"
   stroke="none"
   d="m 117.15365,440.40721 c 0.6707,0.41861 1.71857,1.29264 1.72798,2.17774 0.10454,9.83145 0.0633,19.66473 -0.003,29.49707 -0.004,0.56 -0.57135,1.11621 -1.2468,1.80017 -0.44112,-10.92081 -0.51196,-21.96762 -0.47769,-33.47498 z"
   id="path8" />

<path
   fill="#20262a"
   opacity="1"
   stroke="none"
   d="m 117.16302,352.40493 c 3.05783,3.28222 3.47281,12.27835 0.47638,15.53036 -0.43523,-4.97281 -0.50814,-10.02207 -0.47638,-15.53036 z"
   id="path10" />
<path
   fill="#20262a"
   opacity="1"
   stroke="none"
   d="m 117.28502,135.37149 c 4.07258,1.89621 3.7818,4.62247 0.49494,7.62267 -0.4496,-2.37487 -0.53172,-4.78028 -0.49494,-7.62267 z"
   id="path11" />

<path
   fill="#20262a"
   opacity="1"
   stroke="none"
   d="m 117.94925,506.32991 c 1.00053,0.89917 1.95927,2.15216 2.87696,3.78342 -1.00028,-0.89099 -1.95953,-2.16031 -2.87696,-3.78342 z"
   id="path13" />

<path
   fill="#20262a"
   opacity="1"
   stroke="none"
   d="m 117.20949,187.28212 c 0.28426,0.32024 0.45931,0.97989 0.3719,1.68552 -0.33535,-0.41806 -0.40823,-0.88208 -0.3719,-1.68552 z"
   id="path15" />
<path
   fill="#20262a"
   opacity="1"
   stroke="none"
   d="m 245.48971,510.7599 c 0.30922,-0.43848 -4.28447,-10.58743 -3.55606,-10.70101 -2.4956,-3.21755 4.33188,10.54567 3.55606,10.70101 z"
   id="path16" />
<path
   fill="#20262a"
   opacity="1"
   stroke="none"
   d="m 117.36758,127.30364 c 0.21724,0.0495 0.37077,0.25477 0.29863,0.46157 -0.22567,0.002 -0.36233,-0.30589 -0.29863,-0.46157 z"
   id="path17" />
<path
   fill="#05181f"
   opacity="1"
   stroke="none"
   d="m 526.16467,287.94768 c 0.0299,-32.67221 0.0598,-65.34439 -0.26108,-98.5213 -0.17566,-1.16437 -6.1e-4,-1.82402 0.17444,-2.48369 0.0333,-14.33511 0.0665,-28.67023 -0.36447,-43.4922 -3.38365,-3.45653 -3.67443,-6.18279 0.27925,-8.51599 0.066,-2.13762 0.13206,-4.27526 -0.14493,-6.79187 -0.1895,-0.58422 -0.036,-0.78946 0.11755,-0.99469 -0.095,-1.12817 -0.18997,-2.25634 -0.84623,-3.82419 -4.1354,-1.4121 -7.70451,-3.20756 -11.28444,-3.22935 -35.0592,-0.21352 -70.12024,-0.12061 -105.18071,-0.1462 -4.64543,-0.003 -5.68166,2.23166 -10.32701,2.13415 -1.38913,2.38611 3.82413,0.78892 3.72789,3.22609 -0.42395,10.73654 4.52045,14.17814 5.05286,25.48681 0.66034,1.37383 -2.58424,2.75859 -2.43973,3.57768 1.75586,3.5633 -7.66641,12.24862 -4.1767,12.24746 23.83068,-0.008 47.66135,0.0381 71.49202,0.0663 1.79842,0.002 3.59684,3e-4 5.74779,3e-4 v 296.73088 h -40.41403 c 0,-1.6105 6e-5,-3.35101 0,-5.09152 -0.003,-77.4928 -0.006,-154.98556 -0.007,-232.47836 -1.4e-4,-8.67118 -1.43817,-10.16213 -10.08806,-10.17382 -70.4931,-0.0953 -140.98624,-0.1804 -211.47934,-0.25808 -8.48013,-0.009 -11.01355,2.50485 -11.01199,10.97918 0.014,75.82598 0.0433,151.65194 0.068,227.47793 9.8e-4,2.97921 1.5e-4,5.95843 1.5e-4,9.46813 H 163.97481 V 166.60821 c 8.0032,0 15.64215,-0.0195 23.28094,0.004 18.16385,0.0556 36.32761,0.13246 54.49143,0.19864 5.93625,0.0216 9.32415,-3.08462 9.41375,-9.15263 0.155,-10.49672 0.084,-20.99716 0.0635,-31.49595 -0.009,-4.65353 -2.63119,-6.98006 -7.05777,-7.45055 -1.65011,-0.17537 -3.32901,-0.10253 -4.99481,-0.10473 -36.8299,-0.0486 -73.65976,-0.0868 -110.48966,-0.13952 -9.20855,-0.0132 -11.56591,2.28058 -11.56597,11.40956 -9.2e-4,101.82377 -0.005,203.64755 0.009,305.47134 0.003,22.16428 0.0593,44.32865 0.12665,66.49283 0.0258,8.45349 2.62982,11.00848 11.02173,11.00745 36.49643,-0.005 72.99289,-0.0167 109.48932,-0.012 12.02579,0.002 13.61358,-1.50207 13.6289,-13.406 0.0896,-69.65997 0.16071,-139.31992 0.23526,-208.97989 0.009,-8.46182 0.001,-16.92368 0.001,-25.51865 l 146.15417,-5.33954 c 0,2.04688 -0.0205,9.49571 -0.0183,11.28571 0.0814,77.32605 3.84555,153.77732 3.88652,231.1034 0.002,3.8725 9.68984,-1.2915 13.967,0.57788 1.08543,0.1488 -16.71984,5.97534 -16.12992,6.31396 1.48505,0.0978 0.87727,-0.33507 2.3623,-0.33495 37.42847,0.002 74.89756,4.322 112.32569,4.2011 2.69962,-0.009 5.3959,-1.04871 8.22375,-2.30686 1.08873,-1.95056 2.04748,-3.20355 3.00622,-4.45651 0.28717,-8.53491 0.58303,-17.06958 0.85459,-25.60498 0.0577,-1.81259 0.0268,-3.62799 -0.41426,-6.02853 -0.75608,-1.14438 -1.32362,-1.70059 -1.32743,-2.26059 -0.0668,-9.83234 -0.10803,-19.66562 -0.003,-29.49707 0.009,-0.8851 1.05728,-1.75913 1.62289,-2.63831 0.0501,-23.6719 0.10022,-47.34381 -0.29633,-71.55176 -3.08076,-3.7116 -2.66578,-12.70773 0.28738,-16.44897 0.0578,-4.67416 0.11559,-9.34836 -0.28016,-14.60559 -0.76956,-1.29932 -1.35855,-2.01444 -1.36132,-2.73187 -0.0562,-14.52539 -0.0803,-29.0513 0.0266,-43.57611 0.008,-1.03223 1.07558,-2.05662 1.65051,-3.08466 z"
   id="path18" /></svg>
